<svg xmlns="http://www.w3.org/2000/svg" width="800" height="500" viewBox="0 0 800 500" fill="none">
  <rect width="800" height="500" fill="#06040d"/>
  <rect x="24" y="28" width="752" height="448" rx="12" fill="#0a0614" stroke="rgba(108,71,255,0.25)" stroke-width="1"/>
  <rect x="24" y="28" width="752" height="32" rx="12" fill="#12081f"/>
  <circle cx="44" cy="44" r="5" fill="#ff5f57"/>
  <circle cx="62" cy="44" r="5" fill="#febc2e"/>
  <circle cx="80" cy="44" r="5" fill="#28c840"/>
  <text x="110" y="49" fill="#64748b" font-family="ui-monospace,monospace" font-size="10">terminal — smrtalgo</text>
  <!-- Sidebar symbols -->
  <rect x="36" y="68" width="120" height="396" fill="#0d0618"/>
  <rect x="48" y="88" width="96" height="14" rx="3" fill="#1e1035"/>
  <rect x="48" y="110" width="96" height="14" rx="3" fill="#2a1648"/>
  <rect x="48" y="132" width="96" height="14" rx="3" fill="#1e1035"/>
  <rect x="48" y="154" width="96" height="14" rx="3" fill="#1e1035"/>
  <!-- Chart area -->
  <rect x="168" y="68" width="592" height="396" fill="#080510"/>
  <text x="188" y="100" fill="#a78bfa" font-family="ui-monospace,monospace" font-size="11">BTC/USDT · 15m</text>
  <!-- Candlesticks simplified -->
  <rect x="200" y="280" width="10" height="80" fill="#22c55e" opacity="0.85"/>
  <rect x="230" y="300" width="10" height="60" fill="#ef4444" opacity="0.85"/>
  <rect x="260" y="260" width="10" height="100" fill="#22c55e" opacity="0.85"/>
  <rect x="290" y="290" width="10" height="70" fill="#ef4444" opacity="0.85"/>
  <rect x="320" y="240" width="10" height="120" fill="#22c55e" opacity="0.85"/>
  <rect x="350" y="270" width="10" height="90" fill="#22c55e" opacity="0.85"/>
  <rect x="380" y="310" width="10" height="50" fill="#ef4444" opacity="0.85"/>
  <rect x="410" y="250" width="10" height="110" fill="#22c55e" opacity="0.85"/>
  <path d="M190 200 Q400 120 620 180" stroke="#6c47ff" stroke-width="2" fill="none" opacity="0.6"/>
  <rect x="520" y="100" width="220" height="72" rx="8" fill="#1a0f2e" stroke="rgba(108,71,255,0.4)"/>
  <text x="540" y="128" fill="#e9d5ff" font-family="ui-monospace,monospace" font-size="10">SIGNAL · LONG</text>
  <text x="540" y="150" fill="#86efac" font-family="ui-monospace,monospace" font-size="9">Entry 42,180 · TP 43,400</text>
</svg>
