<svg xmlns="http://www.w3.org/2000/svg" width="800" height="500" viewBox="0 0 800 500" fill="none">
  <rect width="800" height="500" fill="#0c0a10"/>
  <!-- Browser chrome -->
  <rect x="24" y="28" width="752" height="448" rx="12" fill="#1a1520" stroke="rgba(255,255,255,0.08)" stroke-width="1"/>
  <rect x="24" y="28" width="752" height="36" rx="12" fill="#121018"/>
  <rect x="24" y="52" width="752" height="12" fill="#121018"/>
  <circle cx="44" cy="46" r="5" fill="#ff5f57"/>
  <circle cx="62" cy="46" r="5" fill="#febc2e"/>
  <circle cx="80" cy="46" r="5" fill="#28c840"/>
  <rect x="110" y="40" width="420" height="14" rx="7" fill="rgba(255,255,255,0.06)"/>
  <text x="130" y="51" fill="rgba(255,255,255,0.35)" font-family="system-ui,sans-serif" font-size="9">luxenails.studio</text>
  <!-- Page: soft pink hero -->
  <rect x="36" y="76" width="728" height="388" fill="#fdf2f4"/>
  <rect x="56" y="96" width="320" height="8" rx="4" fill="#fda4af"/>
  <text x="56" y="150" fill="#9f1239" font-family="system-ui,sans-serif" font-size="28" font-weight="700">Beautiful Nails,</text>
  <text x="56" y="188" fill="#9f1239" font-family="system-ui,sans-serif" font-size="28" font-weight="700">Beautiful You</text>
  <text x="56" y="230" fill="#881337" font-family="system-ui,sans-serif" font-size="12" opacity="0.85">Book online · Services · Gallery</text>
  <rect x="56" y="252" width="120" height="36" rx="18" fill="#e11d48"/>
  <text x="116" y="275" fill="#fff" font-family="system-ui,sans-serif" font-size="11" font-weight="600" text-anchor="middle">Book now</text>
  <rect x="188" y="252" width="120" height="36" rx="18" fill="transparent" stroke="#e11d48" stroke-width="2"/>
  <text x="248" y="275" fill="#e11d48" font-family="system-ui,sans-serif" font-size="11" font-weight="600" text-anchor="middle">Services</text>
  <!-- Decorative nail / rounded frame -->
  <rect x="480" y="110" width="240" height="300" rx="24" fill="#ffe4e6" stroke="#fecdd3" stroke-width="2"/>
  <ellipse cx="600" cy="240" rx="70" ry="90" fill="#fbcfe8" opacity="0.9"/>
  <ellipse cx="600" cy="230" rx="48" ry="62" fill="#9f1239" opacity="0.35"/>
</svg>
