<svg xmlns="http://www.w3.org/2000/svg" width="480" height="360" viewBox="0 0 480 360" fill="none">
  <rect width="480" height="360" fill="#0a0f1c"/>
  <rect x="20" y="20" width="440" height="320" rx="10" fill="#0f172a" stroke="rgba(108,71,255,0.25)"/>
  <rect x="20" y="20" width="440" height="32" rx="10" fill="#111c2e"/>
  <rect x="20" y="42" width="440" height="10" fill="#111c2e"/>
  <circle cx="36" cy="36" r="4" fill="#ff5f57"/>
  <circle cx="50" cy="36" r="4" fill="#febc2e"/>
  <circle cx="64" cy="36" r="4" fill="#28c840"/>
  <rect x="88" y="30" width="200" height="12" rx="6" fill="rgba(255,255,255,0.06)"/>
  <text x="100" y="40" fill="#64748b" font-family="system-ui,sans-serif" font-size="8">admin.smartdine.app</text>
  <rect x="36" y="64" width="120" height="280" rx="6" fill="#0c1628"/>
  <rect x="48" y="80" width="96" height="8" rx="2" fill="#334155"/>
  <rect x="48" y="98" width="72" height="6" rx="2" fill="#1e293b"/>
  <rect x="48" y="118" width="96" height="28" rx="4" fill="#1e293b"/>
  <rect x="48" y="154" width="96" height="28" rx="4" fill="#312e81" opacity="0.6"/>
  <rect x="168" y="64" width="276" height="120" rx="8" fill="#132337"/>
  <text x="188" y="96" fill="#e2e8f0" font-family="system-ui,sans-serif" font-size="12" font-weight="700">Live orders</text>
  <rect x="188" y="108" width="220" height="6" rx="2" fill="#334155"/>
  <rect x="188" y="124" width="100" height="40" rx="6" fill="#0f172a"/>
  <rect x="300" y="124" width="100" height="40" rx="6" fill="#0f172a"/>
  <rect x="168" y="200" width="276" height="144" rx="8" fill="#0c1628"/>
  <text x="188" y="232" fill="#94a3b8" font-family="system-ui,sans-serif" font-size="10">Seat map À Tonight</text>
  <rect x="188" y="244" width="236" height="80" rx="6" fill="#111827"/>
  <rect x="200" y="258" width="24" height="24" rx="4" fill="#6c47ff" opacity="0.4"/>
  <rect x="232" y="258" width="24" height="24" rx="4" fill="#334155"/>
  <rect x="264" y="258" width="24" height="24" rx="4" fill="#334155"/>
  <rect x="296" y="258" width="24" height="24" rx="4" fill="#22c55e" opacity="0.35"/>
</svg>
