<svg xmlns="http://www.w3.org/2000/svg" width="320" height="640" viewBox="0 0 320 640" fill="none">
  <defs>
    <linearGradient id="ph" x1="0%" y1="0%" x2="100%" y2="100%">
      <stop offset="0%" stop-color="#312e81"/>
      <stop offset="100%" stop-color="#1e1b4b"/>
    </linearGradient>
  </defs>
  <rect width="320" height="640" rx="40" fill="#0c1222" stroke="#334155" stroke-width="3"/>
  <rect x="100" y="24" width="120" height="28" rx="14" fill="#0f172a"/>
  <rect x="16" y="56" width="288" height="560" rx="28" fill="#0b1020"/>
  <rect x="28" y="72" width="264" height="24" rx="8" fill="#111827"/>
  <text x="44" y="88" fill="#94a3b8" font-family="system-ui,sans-serif" font-size="10">9:41</text>
  <rect x="130" y="78" width="60" height="12" rx="6" fill="#1f2937"/>
  <rect x="36" y="108" width="248" height="120" rx="12" fill="url(#ph)"/>
  <text x="48" y="148" fill="#e0e7ff" font-family="system-ui,sans-serif" font-size="13" font-weight="700">A Culinary</text>
  <text x="48" y="168" fill="#c7d2fe" font-family="system-ui,sans-serif" font-size="13" font-weight="700">Masterpiece</text>
  <text x="48" y="198" fill="#a5b4fc" font-family="system-ui,sans-serif" font-size="9" opacity="0.9">Reserve · Order · Rewards</text>
  <rect x="36" y="240" width="118" height="72" rx="10" fill="#111827" stroke="#334155"/>
  <rect x="166" y="240" width="118" height="72" rx="10" fill="#111827" stroke="#334155"/>
  <rect x="36" y="322" width="118" height="72" rx="10" fill="#111827" stroke="#334155"/>
  <rect x="166" y="322" width="118" height="72" rx="10" fill="#111827" stroke="#334155"/>
  <circle cx="72" cy="268" r="14" fill="#6c47ff" opacity="0.5"/>
  <circle cx="202" cy="268" r="14" fill="#3b82f6" opacity="0.5"/>
  <circle cx="72" cy="350" r="14" fill="#22d3ee" opacity="0.4"/>
  <circle cx="202" cy="350" r="14" fill="#ec4899" opacity="0.4"/>
  <rect x="36" y="520" width="248" height="56" rx="14" fill="#111827"/>
  <circle cx="88" cy="548" r="6" fill="#6c47ff"/>
  <circle cx="160" cy="548" r="6" fill="#475569"/>
  <circle cx="232" cy="548" r="6" fill="#475569"/>
</svg>
